<svg xmlns="http://www.w3.org/2000/svg" xmlns:xlink="http://www.w3.org/1999/xlink" viewBox="0 0 1350 1080" width="1350" height="1080" preserveAspectRatio="xMidYMid meet" style="width: 100%; height: 100%; transform: translate3d(0px, 0px, 0px); content-visibility: visible;"><defs><clipPath id="__lottie_element_12"><rect width="1350" height="1080" x="0" y="0"></rect></clipPath></defs><g clip-path="url(#__lottie_element_12)"><g transform="matrix(17.399999618530273,0,0,17.399999618530273,-12344.2197265625,-8679.876953125)" opacity="1" style="display: block;"><g opacity="1" transform="matrix(1,0,0,1,748.2310180664062,529.8779907226562)"><path fill="rgb(255,255,255)" fill-opacity="1" d=" M-20.899999618530273,18.049999237060547 C-20.899999618530273,16.479000091552734 -19.621000289916992,15.199999809265137 -18.049999237060547,15.199999809265137 C-18.049999237060547,15.199999809265137 -5.591000080108643,15.199999809265137 -5.591000080108643,15.199999809265137 C-3.0239999294281006,16.4060001373291 -0.17000000178813934,17.100000381469727 2.8499999046325684,17.100000381469727 C13.85099983215332,17.100000381469727 22.799999237060547,8.151000022888184 22.799999237060547,-2.8499999046325684 C22.799999237060547,-13.85099983215332 13.85099983215332,-22.799999237060547 2.8499999046325684,-22.799999237060547 C-8.151000022888184,-22.799999237060547 -17.100000381469727,-13.85099983215332 -17.100000381469727,-2.8499999046325684 C-17.100000381469727,3.7929999828338623 -13.822999954223633,9.67199993133545 -8.8149995803833,13.300000190734863 C-8.8149995803833,13.300000190734863 -18.049999237060547,13.300000190734863 -18.049999237060547,13.300000190734863 C-20.667999267578125,13.300000190734863 -22.799999237060547,15.430999755859375 -22.799999237060547,18.049999237060547 C-22.799999237060547,20.66900062561035 -20.667999267578125,22.799999237060547 -18.049999237060547,22.799999237060547 C-18.049999237060547,22.799999237060547 22.799999237060547,22.799999237060547 22.799999237060547,22.799999237060547 C22.799999237060547,22.799999237060547 22.799999237060547,20.899999618530273 22.799999237060547,20.899999618530273 C22.799999237060547,20.899999618530273 -18.049999237060547,20.899999618530273 -18.049999237060547,20.899999618530273 C-19.621000289916992,20.899999618530273 -20.899999618530273,19.621000289916992 -20.899999618530273,18.049999237060547z M-15.199999809265137,-2.8499999046325684 C-15.199999809265137,-12.802000045776367 -7.103000164031982,-20.899999618530273 2.8499999046325684,-20.899999618530273 C12.803000450134277,-20.899999618530273 20.899999618530273,-12.802000045776367 20.899999618530273,-2.8499999046325684 C20.899999618530273,7.103000164031982 12.803000450134277,15.199999809265137 2.8499999046325684,15.199999809265137 C-7.103000164031982,15.199999809265137 -15.199999809265137,7.103000164031982 -15.199999809265137,-2.8499999046325684z"></path></g></g><g transform="matrix(1,0,0,1,0,0)" opacity="1" style="display: block;"><g opacity="1" transform="matrix(17.399999618530273,0,0,17.399999618530273,-12344.216796875,-8679.87890625)"><g opacity="1" transform="matrix(1,0,0,1,751.0809936523438,527.0280151367188)"><path fill="rgb(255,255,255)" fill-opacity="1" d=" M-0.949999988079071,0 C-0.949999988079071,0.5249999761581421 -0.5249999761581421,0.949999988079071 0,0.949999988079071 C0.5249999761581421,0.949999988079071 0.949999988079071,0.5249999761581421 0.949999988079071,0 C0.949999988079071,-0.5239999890327454 0.5249999761581421,-0.949999988079071 0,-0.949999988079071 C-0.5249999761581421,-0.949999988079071 -0.949999988079071,-0.5239999890327454 -0.949999988079071,0z"></path></g></g><g opacity="1" transform="matrix(17.399999618530273,0,0,17.399999618530273,-12344.2177734375,-8679.87890625)"><g opacity="1" transform="matrix(1,0,0,1,760.5809936523438,527.0280151367188)"><path fill="rgb(255,255,255)" fill-opacity="1" d=" M0,4.75 C2.61899995803833,4.75 4.75,2.61899995803833 4.75,0 C4.75,-2.61899995803833 2.61899995803833,-4.75 0,-4.75 C-2.61899995803833,-4.75 -4.75,-2.61899995803833 -4.75,0 C-4.75,2.61899995803833 -2.61899995803833,4.75 0,4.75z M0,-2.8499999046325684 C1.5709999799728394,-2.8499999046325684 2.8499999046325684,-1.5709999799728394 2.8499999046325684,0 C2.8499999046325684,1.5720000267028809 1.5709999799728394,2.8510000705718994 0,2.8510000705718994 C-1.5709999799728394,2.8510000705718994 -2.8499999046325684,1.5720000267028809 -2.8499999046325684,0 C-2.8499999046325684,-1.5709999799728394 -1.5709999799728394,-2.8499999046325684 0,-2.8499999046325684z"></path></g></g><g opacity="1" transform="matrix(17.399999618530273,0,0,17.399999618530273,-12344.2177734375,-8679.87890625)"><g opacity="1" transform="matrix(1,0,0,1,741.5809936523438,527.0280151367188)"><path fill="rgb(255,255,255)" fill-opacity="1" d=" M0,-4.75 C-2.61899995803833,-4.75 -4.75,-2.61899995803833 -4.75,0 C-4.75,2.61899995803833 -2.61899995803833,4.75 0,4.75 C2.61899995803833,4.75 4.75,2.61899995803833 4.75,0 C4.75,-2.61899995803833 2.61899995803833,-4.75 0,-4.75z M0,2.8510000705718994 C-1.5709999799728394,2.8510000705718994 -2.8499999046325684,1.5720000267028809 -2.8499999046325684,0 C-2.8499999046325684,-1.5709999799728394 -1.5709999799728394,-2.8499999046325684 0,-2.8499999046325684 C1.5709999799728394,-2.8499999046325684 2.8499999046325684,-1.5709999799728394 2.8499999046325684,0 C2.8499999046325684,1.5720000267028809 1.5709999799728394,2.8510000705718994 0,2.8510000705718994z"></path></g></g><g opacity="1" transform="matrix(17.399999618530273,0,0,17.399999618530273,-12344.2177734375,-8679.87890625)"><g opacity="1" transform="matrix(1,0,0,1,751.0809936523438,517.5280151367188)"><path fill="rgb(255,255,255)" fill-opacity="1" d=" M0,4.75 C2.61899995803833,4.75 4.75,2.61899995803833 4.75,0 C4.75,-2.61899995803833 2.61899995803833,-4.75 0,-4.75 C-2.61899995803833,-4.75 -4.75,-2.61899995803833 -4.75,0 C-4.75,2.61899995803833 -2.61899995803833,4.75 0,4.75z M0,-2.8499999046325684 C1.5709999799728394,-2.8499999046325684 2.8499999046325684,-1.5709999799728394 2.8499999046325684,0 C2.8499999046325684,1.5720000267028809 1.5709999799728394,2.8510000705718994 0,2.8510000705718994 C-1.5709999799728394,2.8510000705718994 -2.8499999046325684,1.5720000267028809 -2.8499999046325684,0 C-2.8499999046325684,-1.5709999799728394 -1.5709999799728394,-2.8499999046325684 0,-2.8499999046325684z"></path></g></g><g opacity="1" transform="matrix(17.399999618530273,0,0,17.399999618530273,-12344.2177734375,-8679.87890625)"><g opacity="1" transform="matrix(1,0,0,1,751.0809936523438,536.5280151367188)"><path fill="rgb(255,255,255)" fill-opacity="1" d=" M4.75,0 C4.75,-2.61899995803833 2.61899995803833,-4.75 0,-4.75 C-2.61899995803833,-4.75 -4.75,-2.61899995803833 -4.75,0 C-4.75,2.61899995803833 -2.61899995803833,4.75 0,4.75 C2.61899995803833,4.75 4.75,2.61899995803833 4.75,0z M-2.8499999046325684,0 C-2.8499999046325684,-1.5709999799728394 -1.5709999799728394,-2.8499999046325684 0,-2.8499999046325684 C1.5709999799728394,-2.8499999046325684 2.8499999046325684,-1.5709999799728394 2.8499999046325684,0 C2.8499999046325684,1.5720000267028809 1.5709999799728394,2.8510000705718994 0,2.8510000705718994 C-1.5709999799728394,2.8510000705718994 -2.8499999046325684,1.5720000267028809 -2.8499999046325684,0z"></path></g></g></g></g></svg>